<svg width="697" height="264" viewBox="0 0 697 264" fill="none" xmlns="http://www.w3.org/2000/svg">
<path d="M450.096 0.406063C466.871 -0.282937 491.276 0.0425529 508.296 0.376553L573.406 108.21C575.001 106.037 577.801 100.943 579.281 98.442L590.261 80.1136L620.881 29.0355C626.516 19.6915 632.501 9.37105 638.501 0.357052C655.691 0.315552 679.921 -0.45893 696.596 0.58157L696.656 8.08856L696.686 172.329C696.686 201.444 696.016 234.669 696.926 263.389C678.316 263.499 659.706 263.514 641.091 263.434L641.101 98.6561C628.146 122.879 611.981 147.529 598.241 171.509C594.881 177.374 578.891 204.639 575.166 208.229C573.501 208.484 573.611 208.529 572.051 207.914C569.406 204.819 564.871 196.824 562.626 193.049L547.136 167.029L521.436 124.085C517.536 117.558 509.541 104.951 507.076 98.4861L507.071 263.429C468.826 263.579 428.686 264.024 390.541 263.349C389.741 259.949 386.091 251.019 384.691 247.379C380.351 236.419 376.191 225.389 372.201 214.294C352.546 214.514 332.896 214.564 313.242 214.444C301.611 214.434 285.507 214.894 274.186 214.209C267.994 230.634 261.714 247.029 255.346 263.389C248.752 263.534 241.919 263.539 235.325 263.459C203.733 263.069 171.799 264.159 140.249 263.309C135.585 255.954 128.342 241.254 123.94 233.094C113.262 213.589 102.745 193.994 92.392 174.319C79.9555 174.404 67.519 174.419 55.0825 174.354L55.0665 263.404C36.711 263.554 18.355 263.524 0 263.309C0.7235 257.729 0.416496 245.344 0.417496 239.319L0.423492 196.759L0.431488 66.3126L0.414993 26.4031C0.398993 18.1446 0.146996 8.57056 0.611496 0.403561C19.6685 -0.142939 41.1115 0.339568 60.3235 0.329068L94.319 0.316555C112.605 0.316055 125.695 -0.592454 143.555 4.69455C208.721 23.9845 222.786 115.273 170.017 155.954C163.745 160.789 158.51 163.494 151.467 166.854C156.833 175.639 162.509 186.549 167.54 195.664L199.557 254.219C202.768 246.879 206.019 237.554 208.885 229.954L225.213 186.439L272.245 61.0991C279.159 42.7546 287.706 17.5896 295.664 0.359555C314.561 0.102555 334.191 0.328059 353.101 0.401059C355.301 4.31256 357.961 11.829 359.611 16.167C362.831 24.608 366.011 33.0651 369.146 41.5386L395.356 111.889L428.191 200.049C435.131 218.494 444.886 242.809 450.081 261.574L450.096 0.406063ZM55.068 124.743L86.984 124.77C105.184 124.778 121.192 127.122 135.919 114.668C149.113 100.689 149.592 77.1855 135.252 63.9315C130.883 59.92 125.567 57.0856 119.802 55.6936C112.901 53.9961 105.911 54.3281 98.8535 54.3426L71.0035 54.4286C66.813 54.4431 59.0915 54.6615 55.092 54.261L55.068 124.743ZM291.532 162.909C301.571 162.399 314.046 162.379 324.191 162.484C333.746 162.484 346.491 162.139 355.821 162.849L332.411 101.923C331.116 98.5811 324.836 81.6391 323.542 79.6091C320.13 86.5871 316.879 97.2375 313.815 104.794C306.218 123.534 299.429 144.399 291.532 162.909Z" fill="black"/>
</svg>
